<svg xmlns="http://www.w3.org/2000/svg" xmlns:xlink="http://www.w3.org/1999/xlink" style="vertical-align:-.88ex" width="34.522ex" height="2.759ex" viewBox="0 -809.3 14863.8 1188"><defs><path id="i" stroke-width="1" d="M297 596q0 31 21 48t43 17q17 0 28-10t14-28q0-28-19-47t-44-19q-18 0-30 10t-13 29zm-9-220q0 29-26 29-22 0-42-12t-35-31-24-37-17-32l-7-14q-2-1-16-1h-14q-6 6-6 8t4 13q21 49 59 92t88 50h8q7 0 12 1 24-1 44-10 25-14 38-31t13-53v-16l-49-199Q267-67 264-75q-18-50-70-89T75-204q-50 0-68 21t-19 46q0 27 19 46t46 20q17 0 29-10t13-31q0-36-32-55 6-1 14-1 34 0 62 28t43 66l11 42q11 43 26 104t32 125 27 111 11 57q0 7-1 11z"/><path id="a" stroke-width="1" d="M591 598h1q12 0 19-15V376v-80q-1-134-5-148-1-2-1-3-19-77-98-122T333-22q-65 0-124 21T106 66 56 173q-1 7-1 211l1 201q10 13 19 13 10 0 20-13V378l1-206 2-10q14-67 83-105t151-39q83 0 155 40t83 117q1 5 1 208v200q8 15 20 15z"/><path id="c" stroke-width="1" d="M184 600q0 24 19 42t44 19q18 0 30-12t13-30q0-23-20-42t-44-20q-15 0-28 10t-14 33zM21 287q0 8 9 31t24 51 44 51 60 22q39 0 65-23t27-62q0-17-14-56t-40-105-42-113q-5-22-5-32 0-25 17-25 9 0 19 3t23 14 27 35 25 59q3 12 5 14t17 2q20 0 20-10 0-8-9-31t-25-51-45-50-62-22q-32 0-59 21T74 74q0 17 5 32t43 114q38 101 44 121t7 39q0 24-17 24h-2q-30 0-55-33t-38-84q-1-1-2-3t-1-3-2-2-3-1-4 0-8 0H27q-6 6-6 9z"/><path id="d" stroke-width="1" d="M56 347q0 13 14 20h637q15-8 15-20 0-11-14-19l-318-1H72q-16 5-16 20zm0-194q0 15 16 20h636q14-10 14-20 0-13-15-20H70q-14 7-14 20z"/><path id="e" stroke-width="1" d="M213 578l-13-5q-14-5-40-10t-58-7H83v46h19q47 2 87 15t56 24 28 22q2 3 12 3 9 0 17-6V361l1-300q7-7 12-9t24-4 62-2h26V0h-11q-21 3-159 3-136 0-157-3H88v46h64q16 0 25 1t16 3 8 2 6 5 6 4v517z"/><path id="f" stroke-width="1" d="M208 74q0-24 46-28 18 0 18-11 0-1-2-13-3-14-6-18t-13-4h-12q-10 0-34 1t-64 1Q70 2 50 0h-8q-7 7-7 11 2 27 13 35h14q70 3 102 50 6 6 181 305t178 303q7 12 24 12h25q6-9 6-10l28-323q28-323 30-326 5-11 65-11 25 0 25-10 0-2-3-14-3-15-5-18t-14-4h-14q-11 0-39 1t-73 1q-94 0-123-2h-12q-6 6-6 9t2 18q4 13 6 16l4 3h20q54 3 64 17l-12 150H283l-34-58q-41-69-41-81zm308 186q0 11-12 156t-14 146l-27-43q-16-27-63-107l-90-152 103-1q103 0 103 1z"/><path id="g" stroke-width="1" d="M55 454q0 49 20 92t52 71 70 48 75 30 65 9h15q44 0 52-1 123-16 192-88t70-161q0-62-31-124t-76-130-60-117v-3h44q46 1 57 3t17 10q5 9 12 42t7 37l1 5h40v-2l-17-86Q645 3 644 2V0H488q-27 0-32 3t-5 17q0 69 48 215t49 220q0 57-18 100t-47 67-59 34-63 12q-29 0-58-10t-60-32-50-66-19-104q0-76 48-223t48-213q0-13-7-20H77v2q-1 1-16 87l-17 86v2h40l1-5q0-1 3-17t8-36 8-26q5-7 16-9t58-4h44v3q-16 49-60 116T87 329 55 454z"/><path id="h" stroke-width="1" d="M78 35v25l16 43 43 18q28 0 50-25t23-88q0-35-9-68t-21-57-26-41-24-27-13-9q-4 0-13 9t-9 13q0 4 11 16t25 30 26 50 16 73V9l-1-1q-2-1-5-2t-6-3-9-2-12-1q-27 0-44 17z"/><path id="b" stroke-width="1" d="M21 287q1 6 3 16t12 38 20 47 33 37 46 17q36 0 60-18t30-34 6-21q0-2 1-2l11 11q61 64 139 64 54 0 87-27t34-79-38-157-38-127q0-26 17-26 6 0 9 1 29 5 52 38t35 80q2 8 20 8 20 0 20-8 0-1-4-15-8-29-22-57t-46-56-69-27q-47 0-68 27t-21 56q0 19 36 120t37 152q0 59-44 59h-5q-86 0-145-101l-7-12-33-134Q156 26 151 16q-13-27-43-27-13 0-21 6T76 7t-2 10q0 13 38 163t40 163q1 5 1 23 0 39-24 39-38 0-63-100-6-20-6-21-2-6-19-6H27q-6 6-6 9z"/><path id="j" stroke-width="1" d="M409 688q4 6 12 6h21q6-6 6-8 0-7-30-123-7-28-14-59t-12-46l-4-16q0-1 9-1t32-6 48-17q44-21 73-61t29-97-31-109-77-86-97-54-95-21h-4l-24-95q-6-23-13-55-8-32-11-38t-12-7h-6q-20 0-20 7 0 5 22 95l23 92q0 1-8 1-5 0-20 2T161 6t-54 30-45 53-19 82q0 60 33 113t81 86 97 52 88 19q5 0 6 4l30 122q31 119 31 121zM122 150q0-34 12-59t33-38 36-18 34-8h7l93 377q-4 0-11-1t-29-8-42-16-44-29-41-46q-18-28-33-67-15-46-15-87zm378 132q0 38-16 65t-40 38-39 15-24 4h-3l-46-187-48-188q0-2 1-2 8 0 32 6t40 14q43 19 74 53t44 70 19 64 6 48z"/><path id="k" stroke-width="1" d="M287 628q0 7-57 9-24 0-31 1t-7 10q0 1 2 11 6 20 9 22t194 2q190-1 203-3 64-11 107-49t44-101q0-77-66-141-69-68-178-86-7-1-105-2h-95l-30-119Q247 66 247 59q0-4 1-5t7-4 17-2 33-2h31q6-9 6-11 0-16-7-30-5-5-16-5-3 0-37 1T182 2H87Q54 2 51 1 33 1 33 11q0 2 3 14 4 16 8 18t23 3q27 0 60 3 14 3 19 12 3 4 72 278t69 289zm358-74q0 13-2 21t-9 22-25 22-49 16q-7 1-80 2h-35q-18 0-29-1t-12 0q-13-1-18-9-2-6-19-77t-35-138-18-68q0-2 81-2h35q112 0 160 50 27 27 41 79t14 83z"/><path id="l" stroke-width="1" d="M94 250q0 69 10 131t23 107 37 88 38 67 42 52 33 34 25 21h17q14 0 14-9 0-3-17-21t-41-53-49-86-42-138-17-193 17-192 41-139 49-86 42-53 17-21q0-9-15-9h-16l-28 24q-94 85-137 212T94 250z"/><path id="m" stroke-width="1" d="M60 749l4 1h22l28-24q94-85 137-212t43-264q0-68-10-131T261 12t-37-88-38-67-41-51-32-33-23-19l-4-4H63q-3 0-5 3t-3 9q1 1 11 13Q221-64 221 250T66 725q-10 12-11 13 0 8 5 11z"/><path id="n" stroke-width="1" d="M84 520q0 8 4 13t8 6l3 1q7 0 154-69t291-137l143-69q7-5 7-15t-7-15q-2-2-292-139L107-40h-6q-18 2-18 20v3q-1 7 15 16 19 10 150 72 78 37 130 61l248 118-248 118Q90 504 86 509q-2 4-2 11z"/><path id="o" stroke-width="1" d="M96 585q56 81 153 81 48 0 96-26t78-92q37-83 37-228 0-155-43-237-20-42-55-67t-61-31-51-7q-26 0-52 6t-61 32-55 67q-43 82-43 237 0 174 57 265zm225 12q-30 32-71 32-42 0-72-32-25-26-33-72t-8-192q0-158 8-208t36-79q28-30 69-30 40 0 68 30 29 30 36 84t8 203q0 145-8 191t-33 73z"/><path id="p" stroke-width="1" d="M78 60q0 24 17 42t43 18q24 0 42-16t19-43q0-25-17-43T139 0 96 17 78 60z"/></defs><g fill="currentColor" stroke="currentColor" stroke-width="0" transform="scale(1 -1)"><use xlink:href="#a"/><use x="943" y="499" transform="scale(.707)" xlink:href="#b"/><g transform="matrix(.707 0 0 .707 667 -308)"><use xlink:href="#c"/><use x="345" xlink:href="#d"/><use x="1124" xlink:href="#e"/></g><g transform="translate(1916)"><use xlink:href="#f"/><use x="1061" y="-213" transform="scale(.707)" xlink:href="#c"/></g><use x="3288" xlink:href="#d"/><use x="4345" xlink:href="#g"/><use x="5067" xlink:href="#h"/><g transform="translate(5512)"><use xlink:href="#f"/><use x="1061" y="-213" transform="scale(.707)" xlink:href="#c"/></g><g transform="translate(6607)"><use xlink:href="#f"/><use x="1061" y="-213" transform="scale(.707)" xlink:href="#i"/></g><use x="8027" xlink:href="#d"/><use x="9083" xlink:href="#j"/><use x="9680" xlink:href="#h"/><use x="10125" xlink:href="#k"/><use x="10876" xlink:href="#l"/><g transform="translate(11266)"><use xlink:href="#f"/><use x="1061" y="-213" transform="scale(.707)" xlink:href="#c"/></g><use x="12361" xlink:href="#m"/><use x="13028" xlink:href="#n"/><g transform="translate(14084)"><use xlink:href="#o"/><use x="500" xlink:href="#p"/></g></g></svg>