<svg xmlns="http://www.w3.org/2000/svg" xmlns:xlink="http://www.w3.org/1999/xlink" style="vertical-align:-.755ex" width="17.084ex" height="2.634ex" viewBox="0 -809.3 7355.4 1134.2"><defs><path id="g" stroke-width="1" d="M34 156q0 114 86 200t189 86q70 0 112-40t57-98q6-29 7-67v-29q49 74 75 166 4 14 6 16t16 3q21 0 21-8 0-9-9-39t-36-85-61-100l-11-14 1-24q2-56 8-76t19-21q14 2 26 11t17 23q2 7 5 8t15 2q20 0 20-8 0-6-6-19-12-24-35-38t-44-15h-7q-67 0-91 72l-3 7-11-8q-10-8-30-20t-45-23-58-20-64-9q-79 0-124 50T34 156zM208 26q49 0 98 21t73 43l24 22q-2 143-7 178-14 115-92 115-69 0-121-73-27-40-44-108t-18-104q0-49 25-71t62-23z"/><path id="a" stroke-width="1" d="M39 168q0 57 19 104t49 78 67 52 70 31 63 9h3q45 0 78-22t33-65q0-90-111-118-49-13-134-14-37 0-38-2 0-2-6-35t-7-58q0-47 21-74t63-28 93 19 92 66q9 10 12 10 4 0 13-9t10-14-9-16-30-27-46-31-63-25-76-10q-79 0-122 53T39 168zm334 185q-6 52-68 52-33 0-61-14t-45-34-29-41-16-36-5-19q0-1 20-1 113 0 158 24t46 69z"/><path id="c" stroke-width="1" d="M434-231q0-13-6-19h-18q-129 0-180 66-5 7-8 12t-5 11-4 13-2 15-1 22-1 27 0 37 0 47v53q-1 89-5 100-1 1-1 2-14 36-50 56t-71 20q-11 0-14 3t-3 16 3 16 14 3q34 0 70 20t51 56q5 11 5 32t1 152v50q0 55 6 77t29 42q26 26 80 42 37 8 53 9h13q11 0 18 1h20q6-6 6-18 0-13-3-16-2-3-16-3-53-3-83-24t-36-42q-5-13-5-148v-82q0-47-3-64t-17-39q-31-43-87-59l-14-5 14-5q18-6 36-15t42-34 28-59q1-6 1-136 0-135 5-148 10-27 43-45t76-21q14 0 16-3 3-3 3-15z"/><path id="d" stroke-width="1" d="M34 159q0 109 86 196t186 87q56 0 88-24t33-63q0-29-19-49t-48-21q-19 0-30 10t-11 30 11 34 22 21 14 6h1q0 2-6 6t-21 8-34 4q-30 0-57-14-21-9-43-31-44-44-64-124t-21-116q0-46 26-69 22-24 58-24h4q112 0 185 85 9 10 12 10 4 0 13-9t10-14-9-15-29-28-45-30-64-25-80-11q-75 0-121 48T34 159z"/><path id="e" stroke-width="1" d="M201-11q-75 0-121 49T34 156q0 65 30 123t82 101q76 61 155 61 32 0 40-1 13-3 26-7t35-16 36-30 26-49 12-70q0-107-86-193T201-11zm-80 131q0-50 26-72t59-22q44 0 83 32t62 84q9 21 23 74t14 92q0 44-18 67-24 30-64 30-63 0-111-58-37-44-55-117t-19-110z"/><path id="f" stroke-width="1" d="M131 289q0 32 16 65t56 61 97 27q62 0 90-27t29-60q0-32-17-47t-38-16q-13 0-24 8t-12 26q0 16 9 28t17 18 13 6q1 0 1 1 0 3-7 9t-25 11-39 6q-48 0-70-26t-23-53q0-25 19-35t55-17 52-15q66-29 66-96 0-28-11-56t-33-56-63-44-94-17q-77 0-109 29T53 87q0 39 21 56t44 17q15 0 28-9t14-31q0-26-18-44t-31-18q-2-1-3-1t-1-2q1-3 8-8t31-13 55-7q36 0 62 11t38 28 17 31 5 25q0 28-21 42t-48 17-59 15-47 35q-17 25-17 58z"/><path id="b" stroke-width="1" d="M56 347q0 13 14 20h637q15-8 15-20 0-11-14-19l-318-1H72q-16 5-16 20zm0-194q0 15 16 20h636q14-10 14-20 0-13-15-20H70q-14 7-14 20z"/><path id="h" stroke-width="1" d="M78 35v25l16 43 43 18q28 0 50-25t23-88q0-35-9-68t-21-57-26-41-24-27-13-9q-4 0-13 9t-9 13q0 4 11 16t25 30 26 50 16 73V9l-1-1q-2-1-5-2t-6-3-9-2-12-1q-27 0-44 17z"/><path id="i" stroke-width="1" d="M370 305h-21l-36 15-16 38q0 23 15 38 5 5 5 6t-10 2q-26 4-49 4-49 0-80-32-47-47-47-157 0-82 31-129 41-61 110-61 41 0 66 26t36 62q2 8 5 10t16 2h14q6-6 6-9 0-4-4-16t-16-33-29-38-48-31-69-13q-86 0-150 64T34 214q0 104 65 169t151 65 120-27 34-64q0-23-17-37z"/><path id="j" stroke-width="1" d="M28 214q0 95 65 164t157 70q90 0 155-68t66-165q0-95-64-160T250-10q-97 0-159 67T28 214zM250 30q122 0 122 163v57q0 22-1 38t-7 38-16 36-31 28-49 20q-5 1-16 1-30 0-57-12-43-22-56-61t-13-92v-20q0-96 19-135 32-61 105-61z"/><path id="k" stroke-width="1" d="M295 316q0 40-27 69t-78 29q-36 0-62-13-30-19-30-52-1-5 0-13t16-24 43-25q18-5 44-9t44-9 32-13q17-8 33-20t32-41 17-62q0-62-38-102T198-10h-8q-52 0-96 36l-8-7-9-9Q71 4 65-1L54-11H42q-3 0-9 6v137q0 21 2 25t10 5h9q12 0 16-4t5-12 7-27 19-42q35-51 97-51 97 0 97 78 0 29-18 47-20 24-83 36t-83 23q-36 17-57 46t-21 62q0 39 17 66t43 40 50 18 44 5h11q40 0 70-15l15-8 9 7q10 9 22 17h12q3 0 9-6V310l-6-6h-28q-6 6-6 12z"/><path id="l" stroke-width="1" d="M29-194q-6 6-6 8 0 3 79 320t84 331q22 68 57 119t66 74q56 47 120 47h2q62 0 102-38t40-97q0-105-104-174l13-13q51-51 51-131 0-113-85-187T257-10q-30 0-54 8t-38 19-22 23-12 19-5 6L62-188q-2-6-20-6H29zm324 625q39 0 74-12l5 3 7 7 10 10q7 7 12 14t11 18 12 24 9 29 8 36q2 9 2 33 0 18-1 23-15 51-76 51-42 0-79-24t-61-61-39-68-23-59q-5-16-38-147t-34-140q-1-5-1-21 0-48 22-79 31-42 87-42 42 0 89 25t76 86q16 34 24 77t8 65q0 58-35 93-42-14-75-14h-10q-79 0-79 31 0 7 3 14 14 28 92 28z"/><path id="m" stroke-width="1" d="M65 731q0 14 3 16t20 3q83 0 128-25t63-55q9-21 10-35t2-134q1-139 2-144 13-45 52-66t72-22q11 0 14-3t3-16-3-16-14-3q-37 0-72-21t-47-53q-5-14-6-36t-1-149v-51q0-55-6-77t-29-42q-54-52-167-52-18 0-21 3t-3 17v7q0 1 1 5t3 4 8 1q14 0 31 3t38 10 37 23 24 38q1 5 2 142l1 136q13 57 70 91 35 17 50 20-25 7-50 20-55 34-68 82l-2 10-1 136q-1 137-2 142-12 40-53 56t-77 17q-9 0-10 3t-2 15z"/></defs><g fill="currentColor" stroke="currentColor" stroke-width="0" transform="scale(1 -1)"><use xlink:href="#a"/><use x="744" xlink:href="#b"/><g transform="translate(1800)"><use xlink:href="#c"/><use x="500" xlink:href="#d"/><use x="934" xlink:href="#e"/><use x="1419" xlink:href="#f"/><use x="1889" xlink:href="#g"/><use x="2529" xlink:href="#h"/><g transform="translate(2974)"><use xlink:href="#i"/><use x="444" xlink:href="#j"/><use x="945" xlink:href="#k"/></g><use x="4480" xlink:href="#l"/><use x="5054" xlink:href="#m"/></g></g></svg>