<svg xmlns="http://www.w3.org/2000/svg" xmlns:xlink="http://www.w3.org/1999/xlink" style="vertical-align:-2.88ex" width="31.02ex" height="6.509ex" viewBox="0 -1562.8 13355.6 2802.6"><defs><path id="a" stroke-width="1" d="M287 628q0 7-57 9-24 0-31 1t-7 10q0 1 2 11 6 20 9 22t194 2q190-1 203-3 64-11 107-49t44-101q0-77-66-141-69-68-178-86-7-1-105-2h-95l-30-119Q247 66 247 59q0-4 1-5t7-4 17-2 33-2h31q6-9 6-11 0-16-7-30-5-5-16-5-3 0-37 1T182 2H87Q54 2 51 1 33 1 33 11q0 2 3 14 4 16 8 18t23 3q27 0 60 3 14 3 19 12 3 4 72 278t69 289zm358-74q0 13-2 21t-9 22-25 22-49 16q-7 1-80 2h-35q-18 0-29-1t-12 0q-13-1-18-9-2-6-19-77t-35-138-18-68q0-2 81-2h35q112 0 160 50 27 27 41 79t14 83z"/><path id="b" stroke-width="1" d="M94 250q0 69 10 131t23 107 37 88 38 67 42 52 33 34 25 21h17q14 0 14-9 0-3-17-21t-41-53-49-86-42-138-17-193 17-192 41-139 49-86 42-53 17-21q0-9-15-9h-16l-28 24q-94 85-137 212T94 250z"/><path id="c" stroke-width="1" d="M208 74q0-24 46-28 18 0 18-11 0-1-2-13-3-14-6-18t-13-4h-12q-10 0-34 1t-64 1Q70 2 50 0h-8q-7 7-7 11 2 27 13 35h14q70 3 102 50 6 6 181 305t178 303q7 12 24 12h25q6-9 6-10l28-323q28-323 30-326 5-11 65-11 25 0 25-10 0-2-3-14-3-15-5-18t-14-4h-14q-11 0-39 1t-73 1q-94 0-123-2h-12q-6 6-6 9t2 18q4 13 6 16l4 3h20q54 3 64 17l-12 150H283l-34-58q-41-69-41-81zm308 186q0 11-12 156t-14 146l-27-43q-16-27-63-107l-90-152 103-1q103 0 103 1z"/><path id="d" stroke-width="1" d="M184 600q0 24 19 42t44 19q18 0 30-12t13-30q0-23-20-42t-44-20q-15 0-28 10t-14 33zM21 287q0 8 9 31t24 51 44 51 60 22q39 0 65-23t27-62q0-17-14-56t-40-105-42-113q-5-22-5-32 0-25 17-25 9 0 19 3t23 14 27 35 25 59q3 12 5 14t17 2q20 0 20-10 0-8-9-31t-25-51-45-50-62-22q-32 0-59 21T74 74q0 17 5 32t43 114q38 101 44 121t7 39q0 24-17 24h-2q-30 0-55-33t-38-84q-1-1-2-3t-1-3-2-2-3-1-4 0-8 0H27q-6 6-6 9z"/><path id="e" stroke-width="1" d="M139-249h-2q-12 0-18 14v486l1 486q10 13 19 13 13 0 20-15v-970q-8-14-18-14h-2z"/><path id="f" stroke-width="1" d="M231 637q-27 0-32 1t-5 11q0 27 11 33 1 1 130 1 259 0 273-2 63-10 105-45t43-92q0-64-58-115t-133-69l-10-3q64-9 105-46t42-92q0-73-72-141T453 1q-7-1-211-1Q42 0 39 2q-4 3-4 8 0 7 2 14 5 19 10 21 4 1 15 1h6q27 0 60 3 14 3 19 12 3 4 72 278t69 289q0 7-57 9zm418-93q0 30-15 56t-49 34q-7 2-92 3h-42q-22 0-35-1h-13q-15-1-19-10-2-4-32-120 0-3-1-6l-31-126h81q81 0 93 2 60 10 107 58t48 110zm-54-315q0 44-23 73t-60 34q-6 1-83 1-118 0-119-1 0-2-17-73t-35-141l-18-70q0-4 12-4t81-2q89 0 96 1 62 7 114 58t52 124z"/><path id="g" stroke-width="1" d="M60 749l4 1h22l28-24q94-85 137-212t43-264q0-68-10-131T261 12t-37-88-38-67-41-51-32-33-23-19l-4-4H63q-3 0-5 3t-3 9q1 1 11 13Q221-64 221 250T66 725q-10 12-11 13 0 8 5 11z"/><path id="h" stroke-width="1" d="M56 347q0 13 14 20h637q15-8 15-20 0-11-14-19l-318-1H72q-16 5-16 20zm0-194q0 15 16 20h636q14-10 14-20 0-13-15-20H70q-14 7-14 20z"/><path id="i" stroke-width="1" d="M61 748q3 2 428 2h424l41-110q11-31 22-61t17-46 6-17h-20l-20 1q-23 62-73 104t-109 61q-53 18-122 23t-219 5H319q-136 0-136-1 3-3 165-225t163-225q6-9 2-15l-23-28q-24-28-70-82T330 27L149-187q0-1 213-1h74q48 0 70-1 173 0 272 27T936-43q10 16 23 49h40l-86-255-424-1q-424 0-427 2-6 2-6 9 0 5 62 78 68 80 127 150l183 217q0 1-186 256L57 717l-1 11q0 16 5 20z"/><path id="j" stroke-width="1" d="M297 596q0 31 21 48t43 17q17 0 28-10t14-28q0-28-19-47t-44-19q-18 0-30 10t-13 29zm-9-220q0 29-26 29-22 0-42-12t-35-31-24-37-17-32l-7-14q-2-1-16-1h-14q-6 6-6 8t4 13q21 49 59 92t88 50h8q7 0 12 1 24-1 44-10 25-14 38-31t13-53v-16l-49-199Q267-67 264-75q-18-50-70-89T75-204q-50 0-68 21t-19 46q0 27 19 46t46 20q17 0 29-10t13-31q0-36-32-55 6-1 14-1 34 0 62 28t43 66l11 42q11 43 26 104t32 125 27 111 11 57q0 7-1 11z"/></defs><g fill="currentColor" stroke="currentColor" stroke-width="0" transform="scale(1 -1)"><use xlink:href="#a"/><use x="751" xlink:href="#b"/><g transform="translate(1141)"><use xlink:href="#c"/><use x="1061" y="-213" transform="scale(.707)" xlink:href="#d"/></g><use x="2235" xlink:href="#e"/><use x="2514" xlink:href="#f"/><use x="3273" xlink:href="#g"/><use x="3941" xlink:href="#h"/><path stroke="none" d="M5116 220h8118v60H5116z"/><g transform="translate(6030 725)"><use xlink:href="#a"/><use x="751" xlink:href="#b"/><use x="1141" xlink:href="#f"/><use x="1900" xlink:href="#e"/><g transform="translate(2179)"><use xlink:href="#c"/><use x="1061" y="-213" transform="scale(.707)" xlink:href="#d"/></g><use x="3273" xlink:href="#g"/><use x="3663" xlink:href="#a"/><use x="4414" xlink:href="#b"/><g transform="translate(4804)"><use xlink:href="#c"/><use x="1061" y="-213" transform="scale(.707)" xlink:href="#d"/></g><use x="5899" xlink:href="#g"/></g><g transform="translate(5176 -726)"><use xlink:href="#i"/><use x="1494" y="-405" transform="scale(.707)" xlink:href="#j"/><use x="1614" xlink:href="#a"/><use x="2366" xlink:href="#b"/><use x="2755" xlink:href="#f"/><use x="3515" xlink:href="#e"/><g transform="translate(3793)"><use xlink:href="#c"/><use x="1061" y="-213" transform="scale(.707)" xlink:href="#j"/></g><use x="4936" xlink:href="#g"/><use x="5325" xlink:href="#a"/><use x="6077" xlink:href="#b"/><g transform="translate(6466)"><use xlink:href="#c"/><use x="1061" y="-213" transform="scale(.707)" xlink:href="#j"/></g><use x="7608" xlink:href="#g"/></g></g></svg>