<svg xmlns="http://www.w3.org/2000/svg" xmlns:xlink="http://www.w3.org/1999/xlink" style="vertical-align:-2.38ex" width="54.202ex" height="5.884ex" viewBox="0 -1508.9 23336.7 2533.5"><defs><path id="i" stroke-width="1" d="M34 156q0 114 86 200t189 86q70 0 112-40t57-98q6-29 7-67v-29q49 74 75 166 4 14 6 16t16 3q21 0 21-8 0-9-9-39t-36-85-61-100l-11-14 1-24q2-56 8-76t19-21q14 2 26 11t17 23q2 7 5 8t15 2q20 0 20-8 0-6-6-19-12-24-35-38t-44-15h-7q-67 0-91 72l-3 7-11-8q-10-8-30-20t-45-23-58-20-64-9q-79 0-124 50T34 156zM208 26q49 0 98 21t73 43l24 22q-2 143-7 178-14 115-92 115-69 0-121-73-27-40-44-108t-18-104q0-49 25-71t62-23z"/><path id="a" stroke-width="1" d="M202 508q-23 0-33 12t-11 27q0 10 6 30t21 47 45 51 71 35l32 5h12q33 0 39-1 63-11 105-53t60-93 17-111q0-95-47-217T402 53q-81-75-179-75-100 0-150 78-31 46-31 92v11q0 117 87 211t193 95q61 0 92-31t41-67l3 11q20 83 20 137 0 88-41 124t-93 37q-78 0-121-64 41-6 41-40 0-25-18-44t-44-20zm228-202q0 66-29 94t-68 28q-63 0-111-46-25-28-39-59t-33-102q-18-72-18-105 0-95 100-95 12 0 18 1 77 13 124 90 15 25 35 84t21 110z"/><path id="c" stroke-width="1" d="M117 59q0-33 25-33 37 0 63 105 6 20 10 21 2 1 10 1h16q3 0 5-2t2-7q-1-6-3-16t-11-38-20-47-31-37-46-17q-36 0-67 22T38 85q0 12 1 17l65 258q63 255 63 263 0 3-1 5t-4 4-5 2-8 1-8 1-9 1-10 0h-13q-3 0-8 1t-6 3-1 6q0 2 2 14 5 19 11 21t72 6q15 1 34 2t30 3 11 1q12 0 12-8 0-11-73-300T118 83v-8q0-6-1-10v-6z"/><path id="d" stroke-width="1" d="M56 347q0 13 14 20h637q15-8 15-20 0-11-14-19l-318-1H72q-16 5-16 20zm0-194q0 15 16 20h636q14-10 14-20 0-13-15-20H70q-14 7-14 20z"/><path id="e" stroke-width="1" d="M52 289q7 42 54 97t116 56q35 0 64-18t43-45q42 63 101 63 37 0 64-22t28-59q0-29-14-47t-27-22-23-4q-19 0-31 11t-12 29q0 46 50 63-11 13-40 13-13 0-19-2-38-16-56-66-60-221-60-258 0-28 16-40t35-12q37 0 73 33t49 81q3 10 6 11t16 2h4q15 0 15-8 0-1-2-11-16-57-62-101T333-11q-70 0-106 63-41-62-94-62h-6q-49 0-70 26T35 71q0 32 19 52t45 20q43 0 43-42 0-20-12-35t-23-20-13-5l-3-1q0-1 6-4t16-7 19-3q36 0 62 45 9 16 23 68t28 108 16 66q5 27 5 39 0 28-15 40t-34 12q-40 0-75-32t-49-82q-2-9-5-10t-16-2H58q-6 6-6 11z"/><path id="f" stroke-width="1" d="M370 305h-21l-36 15-16 38q0 23 15 38 5 5 5 6t-10 2q-26 4-49 4-49 0-80-32-47-47-47-157 0-82 31-129 41-61 110-61 41 0 66 26t36 62q2 8 5 10t16 2h14q6-6 6-9 0-4-4-16t-16-33-29-38-48-31-69-13q-86 0-150 64T34 214q0 104 65 169t151 65 120-27 34-64q0-23-17-37z"/><path id="g" stroke-width="1" d="M28 214q0 95 65 164t157 70q90 0 155-68t66-165q0-95-64-160T250-10q-97 0-159 67T28 214zM250 30q122 0 122 163v57q0 22-1 38t-7 38-16 36-31 28-49 20q-5 1-16 1-30 0-57-12-43-22-56-61t-13-92v-20q0-96 19-135 32-61 105-61z"/><path id="h" stroke-width="1" d="M295 316q0 40-27 69t-78 29q-36 0-62-13-30-19-30-52-1-5 0-13t16-24 43-25q18-5 44-9t44-9 32-13q17-8 33-20t32-41 17-62q0-62-38-102T198-10h-8q-52 0-96 36l-8-7-9-9Q71 4 65-1L54-11H42q-3 0-9 6v137q0 21 2 25t10 5h9q12 0 16-4t5-12 7-27 19-42q35-51 97-51 97 0 97 78 0 29-18 47-20 24-83 36t-83 23q-36 17-57 46t-21 62q0 39 17 66t43 40 50 18 44 5h11q40 0 70-15l15-8 9 7q10 9 22 17h12q3 0 9-6V310l-6-6h-28q-6 6-6 12z"/><path id="b" stroke-width="1" d="M118-162q2 0 6-2t11-3 12-1q13 0 24 13t16 29q10 27 34 153t46 240 22 115v3h-47q-47 0-50 2-4 3-4 10l7 28q2 5 8 5t47 1q48 0 48 1 0 2 9 50t12 58q37 165 146 165 37-2 61-22t24-53q0-36-21-52t-42-17q-44 0-44 42 0 19 11 33t24 21l9 5q-16 6-30 6-12 0-23-10t-15-28q-7-29-16-78t-16-83-7-36q0-2 55-2 45 0 52-1t11-6q1-4-2-17t-5-16q-2-5-9-5t-54-1h-56l-23-122Q301 15 282-47q-27-85-70-126-37-32-73-32-32 0-58 19t-26 54q0 37 21 54t42 17q44 0 44-42 0-19-11-33t-24-21l-9-5z"/><path id="j" stroke-width="1" d="M56 237v13l14 20h299v150l1 150q10 13 19 13 13 0 20-15V270h298q15-8 15-20t-15-20H409V-68q-8-14-18-14h-4q-12 0-18 14v298H70q-14 7-14 20z"/><path id="k" stroke-width="1" d="M21 287q0 14 15 48t48 71 74 36q41 0 66-23t26-64q-2-19-3-21 0-3-16-46t-33-97-16-86q0-43 14-60t42-18q23 0 43 11t31 23 27 33q0 1 5 20t14 59 19 74q38 150 42 157 13 27 43 27 13 0 21-7t11-12 2-9q0-13-49-210T391-23q-28-83-97-132t-138-50q-45 0-79 22t-34 66q0 22 7 37t19 22 20 10 17 3q44 0 44-42 0-20-12-35t-23-20-13-5l-3-1q2-5 19-12t34-7h8q17 0 26 2 33 9 61 38t43 62 23 56 8 30l-6-4q-6-4-19-11T270-6q-20-5-39-5-46 0-81 22t-46 71q-1 7-1 31 0 57 35 149t35 117v14q0 3-4 7t-11 4h-4q-23 0-42-19t-30-41-17-42-8-22q-2-2-16-2H27q-6 6-6 9z"/><path id="l" stroke-width="1" d="M29-194q-6 6-6 8 0 3 79 320t84 331q22 68 57 119t66 74q56 47 120 47h2q62 0 102-38t40-97q0-105-104-174l13-13q51-51 51-131 0-113-85-187T257-10q-30 0-54 8t-38 19-22 23-12 19-5 6L62-188q-2-6-20-6H29zm324 625q39 0 74-12l5 3 7 7 10 10q7 7 12 14t11 18 12 24 9 29 8 36q2 9 2 33 0 18-1 23-15 51-76 51-42 0-79-24t-61-61-39-68-23-59q-5-16-38-147t-34-140q-1-5-1-21 0-48 22-79 31-42 87-42 42 0 89 25t76 86q16 34 24 77t8 65q0 58-35 93-42-14-75-14h-10q-79 0-79 31 0 7 3 14 14 28 92 28z"/><path id="p" stroke-width="1" d="M434-231q0-13-6-19h-18q-129 0-180 66-5 7-8 12t-5 11-4 13-2 15-1 22-1 27 0 37 0 47v53q-1 89-5 100-1 1-1 2-14 36-50 56t-71 20q-11 0-14 3t-3 16 3 16 14 3q34 0 70 20t51 56q5 11 5 32t1 152v50q0 55 6 77t29 42q26 26 80 42 37 8 53 9h13q11 0 18 1h20q6-6 6-18 0-13-3-16-2-3-16-3-53-3-83-24t-36-42q-5-13-5-148v-82q0-47-3-64t-17-39q-31-43-87-59l-14-5 14-5q18-6 36-15t42-34 28-59q1-6 1-136 0-135 5-148 10-27 43-45t76-21q14 0 16-3 3-3 3-15z"/><path id="n" stroke-width="1" d="M78 35v25l16 43 43 18q28 0 50-25t23-88q0-35-9-68t-21-57-26-41-24-27-13-9q-4 0-13 9t-9 13q0 4 11 16t25 30 26 50 16 73V9l-1-1q-2-1-5-2t-6-3-9-2-12-1q-27 0-44 17z"/><path id="q" stroke-width="1" d="M65 731q0 14 3 16t20 3q83 0 128-25t63-55q9-21 10-35t2-134q1-139 2-144 13-45 52-66t72-22q11 0 14-3t3-16-3-16-14-3q-37 0-72-21t-47-53q-5-14-6-36t-1-149v-51q0-55-6-77t-29-42q-54-52-167-52-18 0-21 3t-3 17v7q0 1 1 5t3 4 8 1q14 0 31 3t38 10 37 23 24 38q1 5 2 142l1 136q13 57 70 91 35 17 50 20-25 7-50 20-55 34-68 82l-2 10-1 136q-1 137-2 142-12 40-53 56t-77 17q-9 0-10 3t-2 15z"/><path id="m" stroke-width="1" d="M618-943l-6-6h-30l-14 6q-96 40-157 102t-79 138q-5 21-5 50t-2 303q-1 322-2 332-6 42-22 79t-37 63-43 47-42 34-32 20-15 9q-2 4-2 16v8q0 3 1 6t1 3 2 2 5 3 5 3q63 33 112 92 54 69 67 152 1 10 2 332 1 273 1 303t6 51q37 153 234 238l16 7h30l6-6v-15q0-16-2-18l-8-5q-9-4-23-13t-33-21-37-29-36-38-30-48-20-57q-4-20-4-48t-2-301q-1-272-1-302t-6-51q-9-39-28-74t-42-60-49-46-47-34-36-20-17-10l-9-3 17-9q85-42 140-104T416 3q5-21 5-51t2-301v-123q1-205 5-222 1-3 1-5 5-23 14-44t22-39 26-34 28-29 29-23 26-18 21-13 15-9l6-2q2-2 2-18v-15z"/><path id="o" stroke-width="1" d="M131 1414v15l2 18 15 3h19l15-6q94-40 154-101t79-136q6-23 6-53t2-303l1-320 2-14q8-55 34-102t58-76 53-43 37-22q7-4 8-7t2-16v-13q0-3-3-6t-7-5q-66-33-117-95T426-15l-2-14-1-321q-1-272-1-302t-7-54q-18-74-78-135T182-943l-15-6h-14q-16 0-19 3t-3 18q0 14 1 17t12 7l4 2q151 82 175 222 1 17 2 331t2 330q28 164 214 260l20 9-20 10q-185 95-214 260-1 17-2 330t-2 331q-8 46-30 86t-49 65-51 42-42 27-19 12q-1 1-1 16z"/></defs><g fill="currentColor" stroke="currentColor" stroke-width="0" transform="scale(1 -1)"><path stroke="none" d="M120 220h1238v60H120z"/><g transform="translate(180 680)"><use xlink:href="#a"/><use x="567" xlink:href="#b"/></g><g transform="translate(306 -691)"><use xlink:href="#a"/><use x="567" xlink:href="#c"/></g><use x="1755" xlink:href="#d"/><path stroke="none" d="M2931 220h1260v60H2931z"/><g transform="translate(3002 680)"><use xlink:href="#a"/><use x="567" xlink:href="#b"/></g><g transform="translate(2991 -691)"><use xlink:href="#a"/><use x="567" xlink:href="#e"/></g><g transform="translate(4312)"><use xlink:href="#f"/><use x="444" xlink:href="#g"/><use x="945" xlink:href="#h"/></g><use x="5818" xlink:href="#i"/><use x="6680" xlink:href="#j"/><path stroke="none" d="M7801 220h1238v60H7801z"/><g transform="translate(7861 680)"><use xlink:href="#a"/><use x="567" xlink:href="#b"/></g><g transform="translate(7887 -691)"><use xlink:href="#a"/><use x="567" xlink:href="#k"/></g><g transform="translate(9159)"><use xlink:href="#f"/><use x="444" xlink:href="#g"/><use x="945" xlink:href="#h"/></g><use x="10665" xlink:href="#l"/><use x="11517" xlink:href="#d"/><g transform="translate(12573)"><use xlink:href="#m"/><path stroke="none" d="M870 220h1260v60H870z"/><g transform="translate(941 680)"><use xlink:href="#a"/><use x="567" xlink:href="#b"/></g><g transform="translate(930 -691)"><use xlink:href="#a"/><use x="567" xlink:href="#e"/></g><use x="2250" xlink:href="#n"/><g><path stroke="none" d="M2815 220h1238v60H2815z"/><g transform="translate(2875 680)"><use xlink:href="#a"/><use x="567" xlink:href="#b"/></g><g transform="translate(2901 -691)"><use xlink:href="#a"/><use x="567" xlink:href="#k"/></g></g><use x="4173" y="-1" xlink:href="#o"/></g><g transform="translate(17664)"><use xlink:href="#p"/><g transform="translate(500)"><use xlink:href="#f"/><use x="444" xlink:href="#g"/><use x="945" xlink:href="#h"/></g><use x="2006" xlink:href="#i"/><use x="2647" xlink:href="#n"/><g transform="translate(3092)"><use xlink:href="#f"/><use x="444" xlink:href="#g"/><use x="945" xlink:href="#h"/></g><use x="4598" xlink:href="#l"/><use x="5172" xlink:href="#q"/></g></g></svg>